<?xml version="1.0" encoding="UTF-8" standalone="no"?>
<!-- Created with Inkscape (http://www.inkscape.org/) -->

<svg
   width="20.2939mm"
   height="26.94779mm"
   viewBox="0 0 20.2939 26.94779"
   version="1.1"
   id="svg1"
   inkscape:version="1.3.2 (091e20e, 2023-11-25, custom)"
   sodipodi:docname="src.svg"
   xml:space="preserve"
   xmlns:inkscape="http://www.inkscape.org/namespaces/inkscape"
   xmlns:sodipodi="http://sodipodi.sourceforge.net/DTD/sodipodi-0.dtd"
   xmlns="http://www.w3.org/2000/svg"
   xmlns:svg="http://www.w3.org/2000/svg"><sodipodi:namedview
     id="namedview1"
     pagecolor="#ffffff"
     bordercolor="#666666"
     borderopacity="1.0"
     inkscape:showpageshadow="2"
     inkscape:pageopacity="0.0"
     inkscape:pagecheckerboard="0"
     inkscape:deskcolor="#d1d1d1"
     inkscape:document-units="mm"
     showguides="false"
     inkscape:zoom="0.95618169"
     inkscape:cx="110.85759"
     inkscape:cy="632.20202"
     inkscape:window-width="1080"
     inkscape:window-height="1857"
     inkscape:window-x="-8"
     inkscape:window-y="-8"
     inkscape:window-maximized="1"
     inkscape:current-layer="layer1" /><defs
     id="defs1" /><g
     inkscape:label="Layer 1"
     inkscape:groupmode="layer"
     id="layer1"
     transform="translate(-137.55287,-241.31345)"><path
       style="fill:#cc17d4;fill-opacity:1;stroke-width:0.999999"
       d="m 141.16266,268.17502 c -0.84202,-0.22061 -1.5382,-0.80038 -1.91181,-1.59215 -0.27838,-0.58996 -0.27974,-0.61116 -0.27974,-4.38426 0,-1.87329 0.008,-3.40598 0.0189,-3.40598 0.0104,0 0.17239,0.0759 0.36005,0.16872 0.34609,0.17114 0.8086,0.3358 1.32317,0.47107 0.24683,0.0649 0.62659,0.0778 2.92356,0.0993 l 2.63987,0.0247 0.0298,0.20811 c 0.0663,0.46369 0.36959,0.87047 0.81116,1.08785 0.25112,0.12363 0.33577,0.1431 0.62216,0.1431 0.28639,0 0.37103,-0.0195 0.62216,-0.1431 0.44157,-0.21738 0.74488,-0.62416 0.81116,-1.08785 l 0.0298,-0.20811 2.63987,-0.0247 c 2.29697,-0.0215 2.67672,-0.0344 2.92355,-0.0993 0.51458,-0.13527 0.97709,-0.29993 1.32317,-0.47107 0.18766,-0.0928 0.34969,-0.16872 0.36005,-0.16872 0.0104,0 0.0188,1.53269 0.0188,3.40598 0,3.77208 -6.6e-4,3.78241 -0.28097,4.38426 -0.37028,0.79501 -1.07202,1.37532 -1.92777,1.59418 -0.32738,0.0837 -0.50451,0.086 -6.53771,0.0837 -5.95773,-0.002 -6.21369,-0.006 -6.51912,-0.0857 z m -10e-4,-10.15039 c -1.1943,-0.20031 -2.23152,-0.87286 -2.90237,-1.88197 -0.25734,-0.3871 -0.42898,-0.75602 -0.58437,-1.25606 l -0.12205,-0.39279 v -2.94589 -2.94589 l 0.12205,-0.39278 c 0.24794,-0.79786 0.63841,-1.45313 1.17218,-1.96708 0.67871,-0.65351 1.41999,-1.02115 2.37176,-1.17629 0.58835,-0.0959 12.37469,-0.0956 12.96619,3.3e-4 1.71384,0.27797 3.00587,1.4252 3.53966,3.14299 l 0.12206,0.39279 v 2.94589 2.94589 l -0.12206,0.39278 c -0.53499,1.72164 -1.81696,2.86362 -3.52576,3.14075 -0.33153,0.0538 -0.85983,0.0667 -2.73352,0.0668 l -2.32255,1.7e-4 -0.0123,-2.38945 -0.0123,-2.38944 -0.11567,-0.21821 c -0.15644,-0.29513 -0.40279,-0.53428 -0.69173,-0.67154 -0.20034,-0.0952 -0.30137,-0.11403 -0.611,-0.11403 -0.30962,0 -0.41065,0.0188 -0.61099,0.11403 -0.28895,0.13726 -0.53529,0.37641 -0.69173,0.67154 l -0.11567,0.21821 -0.0123,2.38944 -0.0123,2.38945 -2.3662,-0.004 c -1.80339,-0.003 -2.45247,-0.0189 -2.7289,-0.0653 z m -0.74933,-13.38319 c 0.001,-1.4209 0.0307,-1.66508 0.25904,-2.13034 0.27401,-0.55842 0.74762,-0.9509 1.34857,-1.11753 1.17104,-0.32472 2.38006,0.3671 2.69241,1.54063 0.0471,0.17698 0.0625,0.54124 0.0629,1.48903 l 4.9e-4,1.25473 -1.7348,10e-4 c -1.31727,0.001 -1.81883,0.0167 -2.08394,0.0646 -0.19203,0.0347 -0.39333,0.0635 -0.44734,0.0639 l -0.0982,8.3e-4 z m 14.00848,1.09923 c -0.23102,-0.0404 -0.83773,-0.058 -2.06213,-0.06 l -1.7348,-0.003 5e-4,-1.25473 c 5.4e-4,-1.36117 0.0195,-1.51177 0.24784,-1.96868 0.1576,-0.31538 0.58635,-0.7456 0.88939,-0.89245 1.15574,-0.56002 2.4615,-0.12571 2.9927,0.9954 0.19804,0.41799 0.23201,0.72133 0.23297,2.08394 l 8.2e-4,1.16745 -0.12002,-0.005 c -0.066,-0.003 -0.26731,-0.0312 -0.44734,-0.0627 z"
       id="path6"
       sodipodi:nodetypes="ssssssscssssscssssssscsscsscccssssscccssscccssscsccccccsssssccsccscccssssscccc" /></g></svg>
