<?xml version="1.0" encoding="UTF-8" standalone="no"?>
<!-- Created with Inkscape (http://www.inkscape.org/) -->

<svg
   width="210mm"
   height="297mm"
   viewBox="0 0 210 297"
   version="1.1"
   id="svg1"
   xml:space="preserve"
   inkscape:version="1.3.2 (091e20e, 2023-11-25, custom)"
   sodipodi:docname="hearts-src.svg"
   xmlns:inkscape="http://www.inkscape.org/namespaces/inkscape"
   xmlns:sodipodi="http://sodipodi.sourceforge.net/DTD/sodipodi-0.dtd"
   xmlns="http://www.w3.org/2000/svg"
   xmlns:svg="http://www.w3.org/2000/svg"><sodipodi:namedview
     id="namedview1"
     pagecolor="#ffffff"
     bordercolor="#666666"
     borderopacity="1.0"
     inkscape:showpageshadow="2"
     inkscape:pageopacity="0.0"
     inkscape:pagecheckerboard="0"
     inkscape:deskcolor="#d1d1d1"
     inkscape:document-units="mm"
     inkscape:zoom="0.55640911"
     inkscape:cx="92.557794"
     inkscape:cy="703.61896"
     inkscape:window-width="1920"
     inkscape:window-height="1017"
     inkscape:window-x="-8"
     inkscape:window-y="-8"
     inkscape:window-maximized="1"
     inkscape:current-layer="layer1" /><defs
     id="defs1"><inkscape:path-effect
       effect="mirror_symmetry"
       start_point="118.06604,137.84969"
       end_point="118.06604,170.52573"
       center_point="118.06604,154.18771"
       id="path-effect20"
       is_visible="true"
       lpeversion="1.2"
       lpesatellites=""
       mode="free"
       discard_orig_path="false"
       fuse_paths="true"
       oposite_fuse="true"
       split_items="false"
       split_open="false"
       link_styles="false" /><inkscape:path-effect
       effect="mirror_symmetry"
       start_point="118.06604,137.84969"
       end_point="118.06604,170.52573"
       center_point="118.06604,154.18771"
       id="path-effect17"
       is_visible="true"
       lpeversion="1.2"
       lpesatellites=""
       mode="free"
       discard_orig_path="false"
       fuse_paths="true"
       oposite_fuse="true"
       split_items="false"
       split_open="false"
       link_styles="false" /><inkscape:path-effect
       effect="mirror_symmetry"
       start_point="118.06604,137.84969"
       end_point="118.06604,170.52573"
       center_point="118.06604,154.18771"
       id="path-effect14"
       is_visible="true"
       lpeversion="1.2"
       lpesatellites=""
       mode="free"
       discard_orig_path="false"
       fuse_paths="true"
       oposite_fuse="true"
       split_items="false"
       split_open="false"
       link_styles="false" /><inkscape:path-effect
       effect="mirror_symmetry"
       start_point="118.06604,137.84969"
       end_point="118.06604,170.52573"
       center_point="118.06604,154.18771"
       id="path-effect7"
       is_visible="true"
       lpeversion="1.2"
       lpesatellites=""
       mode="free"
       discard_orig_path="false"
       fuse_paths="true"
       oposite_fuse="true"
       split_items="false"
       split_open="false"
       link_styles="false" /><inkscape:path-effect
       effect="mirror_symmetry"
       start_point="118.06604,137.84969"
       end_point="118.06604,170.52573"
       center_point="118.06604,154.18771"
       id="path-effect5"
       is_visible="true"
       lpeversion="1.2"
       lpesatellites=""
       mode="free"
       discard_orig_path="false"
       fuse_paths="true"
       oposite_fuse="true"
       split_items="false"
       split_open="false"
       link_styles="false" /><inkscape:path-effect
       effect="mirror_symmetry"
       start_point="118.06604,137.84969"
       end_point="118.06604,170.52573"
       center_point="118.06604,154.18771"
       id="path-effect3"
       is_visible="true"
       lpeversion="1.2"
       lpesatellites=""
       mode="free"
       discard_orig_path="false"
       fuse_paths="true"
       oposite_fuse="true"
       split_items="false"
       split_open="false"
       link_styles="false" /><inkscape:path-effect
       effect="mirror_symmetry"
       start_point="118.06604,137.84969"
       end_point="118.06604,170.52573"
       center_point="118.06604,154.18771"
       id="path-effect1"
       is_visible="true"
       lpeversion="1.2"
       lpesatellites=""
       mode="free"
       discard_orig_path="false"
       fuse_paths="true"
       oposite_fuse="true"
       split_items="false"
       split_open="false"
       link_styles="false" /></defs><g
     inkscape:label="Layer 1"
     inkscape:groupmode="layer"
     id="layer1"><path
       style="fill:#fb0000;stroke:#000000;stroke-opacity:1;fill-opacity:1;stroke-width:4;stroke-dasharray:none"
       d="m 118.06604,142.37827 c 0.19115,-0.18081 0.72927,-0.57503 1.50675,-1.31034 0.77766,-0.73548 2.09885,-1.65821 2.93598,-2.05052 1.35017,-0.63273 2.95547,-0.90724 4.30018,-0.90263 1.34471,0.005 2.92785,0.26295 4.26677,0.92069 6.07792,2.98597 7.47152,11.53098 2.98175,18.28297 -1.53681,2.31114 -5.1263,6.04562 -8.04155,8.36636 -2.81062,2.23745 -7.40181,5.29489 -7.94988,5.29537 -0.54807,-4.8e-4 -5.13926,-3.05792 -7.94988,-5.29537 -2.91525,-2.32074 -6.50474,-6.05522 -8.04155,-8.36636 -4.48977,-6.75199 -3.09617,-15.297 2.98175,-18.28297 1.33892,-0.65774 2.92206,-0.91569 4.26677,-0.92069 1.34471,-0.005 2.95001,0.2699 4.30018,0.90263 0.83713,0.39231 2.15832,1.31504 2.93598,2.05052 0.77748,0.73531 1.3156,1.12953 1.50675,1.31034 z"
       id="path1"
       sodipodi:nodetypes="csszcssc"
       transform="translate(-4.070259,-42.202159)"
       inkscape:original-d="m 118.06591,142.37839 c 0.19104,-0.18075 0.72922,-0.57498 1.50688,-1.31046 0.77766,-0.73548 2.09885,-1.65821 2.93598,-2.05052 1.35017,-0.63273 2.95547,-0.90724 4.30018,-0.90263 1.34471,0.005 2.92785,0.26295 4.26677,0.92069 6.07792,2.98597 7.47152,11.53098 2.98175,18.28297 -1.53681,2.31114 -5.1263,6.04562 -8.04155,8.36636 -2.81084,2.23763 -7.40254,5.29537 -7.95001,5.29537"
       inkscape:path-effect="#path-effect1" /><path
       style="fill:#ffffff;fill-opacity:1;stroke:none;stroke-width:4;stroke-dasharray:none;stroke-opacity:1"
       d="m 118.06591,142.37839 c 0.19104,-0.18075 0.72922,-0.57498 1.50688,-1.31046 0.77766,-0.73548 2.09885,-1.65821 2.93598,-2.05052 1.35017,-0.63273 2.95547,-0.90724 4.30018,-0.90263 1.34471,0.005 2.92785,0.26295 4.26677,0.92069 6.07792,2.98597 7.47152,11.53098 2.98175,18.28297 -1.53681,2.31114 -5.1263,6.04562 -8.04155,8.36636 -2.81084,2.23763 -7.40254,5.29537 -7.95001,5.29537"
       id="path3"
       sodipodi:nodetypes="csszcssc"
       transform="translate(-4.070259,-84.535495)" /><path
       style="display:inline;fill:#fb0000;fill-opacity:1;stroke:none;stroke-width:4;stroke-dasharray:none;stroke-opacity:1"
       d="m 118.06604,142.37827 c 0.19115,-0.18081 0.72927,-0.57503 1.50675,-1.31034 0.77766,-0.73548 2.09885,-1.65821 2.93598,-2.05052 1.35017,-0.63273 2.95547,-0.90724 4.30018,-0.90263 1.34471,0.005 2.92785,0.26295 4.26677,0.92069 6.07792,2.98597 7.47152,11.53098 2.98175,18.28297 -1.53681,2.31114 -5.1263,6.04562 -8.04155,8.36636 -2.81062,2.23745 -7.40181,5.29489 -7.94988,5.29537 -0.54807,-4.8e-4 -5.13926,-3.05792 -7.94988,-5.29537 -2.91525,-2.32074 -6.50474,-6.05522 -8.04155,-8.36636 -4.48977,-6.75199 -3.09617,-15.297 2.98175,-18.28297 1.33892,-0.65774 2.92206,-0.91569 4.26677,-0.92069 1.34471,-0.005 2.95001,0.2699 4.30018,0.90263 0.83713,0.39231 2.15832,1.31504 2.93598,2.05052 0.77748,0.73531 1.3156,1.12953 1.50675,1.31034 z"
       id="path5"
       sodipodi:nodetypes="csszcssc"
       transform="translate(-11.169014,15.6881)"
       inkscape:export-filename="heart_full.png"
       inkscape:export-xdpi="144.49779"
       inkscape:export-ydpi="144.49779"
       inkscape:original-d="m 118.06591,142.37839 c 0.19104,-0.18075 0.72922,-0.57498 1.50688,-1.31046 0.77766,-0.73548 2.09885,-1.65821 2.93598,-2.05052 1.35017,-0.63273 2.95547,-0.90724 4.30018,-0.90263 1.34471,0.005 2.92785,0.26295 4.26677,0.92069 6.07792,2.98597 7.47152,11.53098 2.98175,18.28297 -1.53681,2.31114 -5.1263,6.04562 -8.04155,8.36636 -2.81084,2.23763 -7.40254,5.29537 -7.95001,5.29537"
       inkscape:path-effect="#path-effect7" /><path
       id="path11"
       style="fill:#fb0000;fill-opacity:1;stroke:none;stroke-width:4;stroke-dasharray:none;stroke-opacity:1"
       d="m 106.89739,158.0667 c -0.19116,-0.1808 -0.72941,-0.5752 -1.50689,-1.31051 -0.77766,-0.73548 -2.09912,-1.65821 -2.93625,-2.05052 -1.35017,-0.63273 -2.955288,-0.9074 -4.299998,-0.90279 -1.34471,0.005 -2.928,0.26314 -4.26692,0.92088 -6.077917,2.98596 -7.471499,11.53113 -2.98173,18.28312 1.53681,2.31114 5.12664,6.04567 8.04188,8.36641 2.810618,2.23745 7.401838,5.2948 7.949908,5.29529 0.54806,-4.9e-4 5.13877,-3.05784 7.94938,-5.29529 2.91525,-2.32074 6.50508,-6.05527 8.04189,-8.36641 0.60311,-0.907 1.09665,-1.84698 1.49035,-2.80086 -6.4179,-0.0148 -17.48162,0.0636 -17.48162,0.0636 z" /><path
       id="path14"
       style="fill:#fb0000;fill-opacity:1;stroke:none;stroke-width:4;stroke-dasharray:none;stroke-opacity:1"
       d="m 106.89688,158.06671 c -0.19116,-0.18081 -0.72941,-0.57521 -1.50689,-1.31052 -0.77766,-0.73548 -2.09861,-1.65821 -2.93574,-2.05052 -1.35017,-0.63273 -2.955803,-0.9074 -4.300513,-0.90279 -1.34471,0.005 -2.92749,0.26314 -4.26641,0.92088 -6.077911,2.98596 -7.471492,11.53114 -2.98173,18.28312 1.53681,2.31114 5.12613,6.04516 8.04137,8.3659 2.810623,2.23745 7.401843,5.29531 7.949913,5.2958 z" /><path
       id="path20"
       style="fill:#fb0000;fill-opacity:1;stroke:none;stroke-width:4;stroke-dasharray:none;stroke-opacity:1"
       d="m 106.89479,158.0667 c -0.19115,-0.18079 -0.72888,-0.5752 -1.50636,-1.31051 -0.77766,-0.73548 -2.09913,-1.65821 -2.93626,-2.05052 -1.35017,-0.63273 -2.955298,-0.9074 -4.299988,-0.90279 -1.34471,0.005 -2.92801,0.26314 -4.26693,0.92088 -5.276184,2.59208 -7.019665,9.37301 -4.45141,15.53393 3.07403,-0.0102 10.10894,-0.0318 17.460948,-0.0444 z" /><path
       style="fill:none;fill-opacity:1;stroke:#000000;stroke-width:4;stroke-dasharray:none;stroke-opacity:1"
       d="m 118.06604,142.37827 c 0.19115,-0.18081 0.72927,-0.57503 1.50675,-1.31034 0.77766,-0.73548 2.09885,-1.65821 2.93598,-2.05052 1.35017,-0.63273 2.95547,-0.90724 4.30018,-0.90263 1.34471,0.005 2.92785,0.26295 4.26677,0.92069 6.07792,2.98597 7.47152,11.53098 2.98175,18.28297 -1.53681,2.31114 -5.1263,6.04562 -8.04155,8.36636 -2.81062,2.23745 -7.40181,5.29489 -7.94988,5.29537 -0.54807,-4.8e-4 -5.13926,-3.05792 -7.94988,-5.29537 -2.91525,-2.32074 -6.50474,-6.05522 -8.04155,-8.36636 -4.48977,-6.75199 -3.09617,-15.297 2.98175,-18.28297 1.33892,-0.65774 2.92206,-0.91569 4.26677,-0.92069 1.34471,-0.005 2.95001,0.2699 4.30018,0.90263 0.83713,0.39231 2.15832,1.31504 2.93598,2.05052 0.77748,0.73531 1.3156,1.12953 1.50675,1.31034 z"
       id="path2"
       sodipodi:nodetypes="csszcssc"
       transform="translate(-11.169014,15.688103)"
       inkscape:original-d="m 118.06591,142.37839 c 0.19104,-0.18075 0.72922,-0.57498 1.50688,-1.31046 0.77766,-0.73548 2.09885,-1.65821 2.93598,-2.05052 1.35017,-0.63273 2.95547,-0.90724 4.30018,-0.90263 1.34471,0.005 2.92785,0.26295 4.26677,0.92069 6.07792,2.98597 7.47152,11.53098 2.98175,18.28297 -1.53681,2.31114 -5.1263,6.04562 -8.04155,8.36636 -2.81084,2.23763 -7.40254,5.29537 -7.95001,5.29537"
       inkscape:path-effect="#path-effect3" /><rect
       style="fill:none;fill-opacity:1;stroke:none;stroke-width:4;stroke-linecap:round;stroke-linejoin:round;stroke-dasharray:none;stroke-opacity:1"
       id="rect21"
       width="45"
       height="45"
       x="84.397026"
       y="147.73555" /></g></svg>
